<svg width="512" height="512" viewBox="0 0 512 512" fill="none" xmlns="http://www.w3.org/2000/svg">
<g clip-path="url(#clip0)">
<path d="M405.332 256.984C393.535 256.984 384 266.543 384 278.316V448.984C384 460.738 374.441 470.316 362.668 470.316H64C52.2227 470.316 42.668 460.738 42.668 448.984V150.316C42.668 138.562 52.2227 128.984 64 128.984H234.668C246.465 128.984 256 119.426 256 107.652C256 95.875 246.465 86.3164 234.668 86.3164H64C28.7148 86.3164 0 115.031 0 150.316V448.984C0 484.27 28.7148 512.984 64 512.984H362.668C397.953 512.984 426.668 484.27 426.668 448.984V278.316C426.668 266.52 417.129 256.984 405.332 256.984Z" fill="#FE6DE7"/>
<path d="M200.02 237.551C198.527 239.043 197.523 240.941 197.098 242.988L182.016 318.426C181.312 321.922 182.422 325.527 184.937 328.066C186.965 330.094 189.695 331.18 192.492 331.18C193.172 331.18 193.879 331.117 194.582 330.969L269.996 315.887C272.086 315.457 273.984 314.457 275.457 312.961L444.246 144.172L368.832 68.7617L200.02 237.551Z" fill="#FE6DE7"/>
<path d="M496.383 16.6016C475.586 -4.19922 441.75 -4.19922 420.969 16.6016L391.445 46.125L466.859 121.539L496.383 92.0117C506.453 81.9648 512 68.5664 512 54.3164C512 40.0664 506.453 26.668 496.383 16.6016Z" fill="#FE6DE7"/>
</g>
<defs>
<clipPath id="clip0">
<rect width="512" height="512" fill="white"/>
</clipPath>
</defs>
</svg>
