<svg width="870" height="678" viewBox="0 0 870 678" fill="none" xmlns="http://www.w3.org/2000/svg">
<g clip-path="url(#clip0)">
<path d="M666.092 671.257C654.954 661.845 648.189 646.977 649.963 632.503C651.737 618.029 662.726 604.723 676.981 601.649C691.236 598.576 707.485 607.084 711.815 621.009C714.198 594.162 716.943 566.191 731.217 543.329C744.141 522.628 766.525 507.815 790.785 505.165C815.045 502.515 840.588 512.524 855.718 531.672C870.848 550.82 874.553 578.658 863.956 600.641C856.15 616.836 841.768 628.888 826.699 638.693C778.008 670.11 719.608 682.886 662.246 674.67L666.092 671.257Z" fill="#F2F2F2"/>
<path d="M831.728 513.079C811.71 529.383 793.346 547.619 776.902 567.521C751.166 598.562 730.34 633.364 715.15 670.715C714.038 673.44 718.462 674.626 719.562 671.932C744.416 611.228 784.092 557.724 834.963 516.314C837.248 514.454 833.993 511.234 831.728 513.079Z" fill="white"/>
<path d="M280.067 668.699C295.366 655.772 304.658 635.351 302.221 615.471C299.784 595.591 284.69 577.315 265.112 573.094C245.533 568.872 223.214 580.558 217.267 599.684C213.995 562.81 210.223 524.392 190.619 492.991C172.868 464.558 142.122 444.213 108.801 440.573C75.4801 436.933 40.3972 450.68 19.6161 476.98C-1.1651 503.28 -6.25327 541.515 8.30131 571.709C19.0232 593.952 38.7766 610.506 59.4733 623.973C125.503 666.939 207.412 684.858 285.351 673.388" fill="#F2F2F2"/>
<path d="M52.5667 451.442C80.0607 473.836 105.284 498.883 127.871 526.219C150.461 553.526 170.349 582.961 187.257 614.109C196.707 631.582 205.196 649.557 212.687 667.956C214.214 671.698 208.137 673.327 206.627 669.626C193.359 637.19 176.944 606.133 157.618 576.899C138.385 547.772 116.373 520.578 91.889 495.701C78.041 481.637 63.4301 468.346 48.1227 455.886C44.9851 453.331 49.455 448.908 52.5667 451.442L52.5667 451.442Z" fill="white"/>
<path d="M624.5 676H259.5V301.5C259.5 221.822 324.322 157 404 157H480C559.678 157 624.5 221.822 624.5 301.5V676Z" fill="#F2F2F2"/>
<path d="M548.5 676H259.5V301.5C259.42 270.969 269.088 241.21 287.096 216.556C287.759 215.651 288.422 214.758 289.104 213.875C297.815 202.451 308.18 192.39 319.859 184.024C320.518 183.544 321.181 183.072 321.853 182.601C331.625 175.838 342.196 170.31 353.325 166.142C353.986 165.891 354.659 165.64 355.332 165.399C365.397 161.807 375.83 159.347 386.44 158.063C387.098 157.974 387.773 157.903 388.448 157.833C398.787 156.728 409.215 156.728 419.554 157.833C420.227 157.903 420.902 157.974 421.568 158.064C432.175 159.348 442.606 161.808 452.668 165.399C453.341 165.64 454.014 165.891 454.677 166.142C465.669 170.258 476.115 175.703 485.783 182.358C486.455 182.819 487.127 183.291 487.79 183.763C494.336 188.435 500.485 193.641 506.173 199.327C510.735 203.887 514.986 208.748 518.898 213.878C519.578 214.758 520.24 215.651 520.903 216.554C538.911 241.209 548.58 270.969 548.5 301.5V676Z" fill="#CE1EC7"/>
<path d="M525 508.5C533.836 508.5 541 501.337 541 492.5C541 483.663 533.836 476.5 525 476.5C516.163 476.5 509 483.663 509 492.5C509 501.337 516.163 508.5 525 508.5Z" fill="#7B008F"/>
<path d="M594.599 664.783H582.339L576.506 617.495L594.601 617.496L594.599 664.783Z" fill="#FFB8B8"/>
<path d="M573.582 661.28H597.225V676.167H558.695C558.695 674.212 559.08 672.276 559.828 670.47C560.576 668.664 561.673 667.022 563.055 665.64C564.437 664.258 566.079 663.161 567.885 662.413C569.691 661.665 571.627 661.28 573.582 661.28V661.28Z" fill="#2F2E41"/>
<path d="M655.599 664.783H643.339L637.506 617.495L655.601 617.496L655.599 664.783Z" fill="#FFB8B8"/>
<path d="M634.582 661.28H658.225V676.167H619.695C619.695 674.212 620.08 672.276 620.828 670.47C621.576 668.664 622.673 667.022 624.055 665.64C625.437 664.258 627.079 663.161 628.885 662.413C630.691 661.665 632.627 661.28 634.582 661.28V661.28Z" fill="#2F2E41"/>
<path d="M533.098 495.67C532.216 494.37 531.629 492.893 531.38 491.343C531.131 489.792 531.224 488.206 531.654 486.695C532.084 485.185 532.84 483.787 533.869 482.6C534.898 481.413 536.174 480.467 537.608 479.827L579.284 364.96L599.791 376.151L552.206 485.922C553.122 488.403 553.096 491.133 552.133 493.595C551.17 496.058 549.337 498.082 546.982 499.283C544.626 500.485 541.912 500.781 539.353 500.115C536.794 499.449 534.568 497.867 533.098 495.67V495.67Z" fill="#FFB8B8"/>
<path d="M649.336 517.254C647.974 516.472 646.799 515.402 645.895 514.118C644.991 512.834 644.38 511.367 644.104 509.821C643.828 508.275 643.895 506.687 644.299 505.169C644.703 503.652 645.435 502.241 646.443 501.037L633.533 379.528L656.87 380.594L662.236 500.114C664.147 501.942 665.32 504.408 665.535 507.043C665.749 509.678 664.989 512.301 663.399 514.414C661.809 516.526 659.499 517.982 656.907 518.506C654.316 519.029 651.622 518.584 649.336 517.254V517.254Z" fill="#FFB8B8"/>
<path d="M612.106 343.684C625.67 343.684 636.667 332.687 636.667 319.123C636.667 305.558 625.67 294.562 612.106 294.562C598.541 294.562 587.545 305.558 587.545 319.123C587.545 332.687 598.541 343.684 612.106 343.684Z" fill="#FFB8B8"/>
<path d="M649.18 489.619H575.133L575.222 489.042C575.355 488.181 588.419 402.603 578.784 374.606C577.817 371.855 577.902 368.843 579.022 366.151C580.143 363.459 582.22 361.276 584.853 360.023H584.853C598.625 353.538 625.061 345.552 647.373 364.932C650.657 367.831 653.22 371.454 654.862 375.515C656.504 379.575 657.179 383.962 656.833 388.328L649.18 489.619Z" fill="#EE4CE8"/>
<path d="M589.354 415.25L556.018 408.487L571.644 371.457C572.579 367.871 574.899 364.802 578.094 362.923C581.289 361.044 585.098 360.51 588.687 361.436C592.276 362.363 595.351 364.675 597.237 367.865C599.124 371.056 599.667 374.864 598.75 378.455L589.354 415.25Z" fill="#EE4CE8"/>
<path d="M632.05 427.808L630.046 381.867C628.526 373.23 633.47 365.066 641.074 363.732C648.679 362.402 656.105 368.392 657.632 377.092L665.165 420.02L632.05 427.808Z" fill="#EE4CE8"/>
<path d="M646.716 484.119C658.631 529.495 659.93 587.188 656.716 650.119L640.716 648.119L611.716 528.119L595.716 650.119L577.716 649.119C572.339 583.089 567.103 526.403 575.716 489.119L646.716 484.119Z" fill="#2F2E41"/>
<path d="M628.289 338.104C623.707 342.985 615.198 340.365 614.601 333.697C614.554 333.179 614.557 332.658 614.611 332.141C614.919 329.188 616.625 326.506 616.217 323.388C616.124 322.611 615.835 321.872 615.377 321.239C611.725 316.349 603.154 323.426 599.708 318.999C597.595 316.285 600.079 312.012 598.458 308.979C596.318 304.975 589.979 306.95 586.004 304.758C581.581 302.318 581.846 295.532 584.757 291.405C588.308 286.371 594.533 283.685 600.68 283.298C606.828 282.911 612.933 284.573 618.673 286.81C625.194 289.351 631.66 292.863 635.673 298.597C640.554 305.571 641.023 314.945 638.583 323.099C637.098 328.059 632.031 334.118 628.289 338.104Z" fill="#2F2E41"/>
<path d="M839.982 676.643H101.688C101.372 676.643 101.07 676.517 100.848 676.293C100.625 676.07 100.5 675.768 100.5 675.453C100.5 675.138 100.625 674.835 100.848 674.612C101.07 674.389 101.372 674.263 101.688 674.262H839.982C840.297 674.263 840.599 674.389 840.821 674.612C841.044 674.835 841.169 675.138 841.169 675.453C841.169 675.768 841.044 676.07 840.821 676.293C840.599 676.517 840.297 676.643 839.982 676.643V676.643Z" fill="#3F3D56"/>
<path d="M469 567.5H339C337.288 567.509 335.642 566.839 334.424 565.636C333.205 564.434 332.513 562.797 332.5 561.085V270.915C332.513 269.203 333.205 267.566 334.424 266.364C335.642 265.161 337.288 264.491 339 264.5H469C470.712 264.491 472.358 265.161 473.576 266.364C474.795 267.566 475.487 269.203 475.5 270.915V561.085C475.487 562.797 474.795 564.434 473.576 565.636C472.358 566.839 470.712 567.509 469 567.5V567.5Z" fill="white"/>
<path d="M475.5 358.39H332.5V360.39H475.5V358.39Z" fill="#CCCCCC"/>
<path d="M476 472.5H333V474.5H476V472.5Z" fill="#CCCCCC"/>
<path d="M379.5 264.5H377.5V568.5H379.5V264.5Z" fill="#CCCCCC"/>
<path d="M429.5 264.5H427.5V568.5H429.5V264.5Z" fill="#CCCCCC"/>
</g>
<path d="M241.856 135C240.896 135 240.032 134.664 239.264 133.992C238.592 133.224 238.256 132.36 238.256 131.4V56.808H212.624C211.664 56.808 210.8 56.472 210.032 55.8C209.36 55.032 209.024 54.168 209.024 53.208V37.8C209.024 36.744 209.36 35.88 210.032 35.208C210.8 34.536 211.664 34.2 212.624 34.2H290.096C291.152 34.2 292.016 34.536 292.688 35.208C293.36 35.88 293.696 36.744 293.696 37.8V53.208C293.696 54.264 293.36 55.128 292.688 55.8C292.016 56.472 291.152 56.808 290.096 56.808H264.464V131.4C264.464 132.36 264.128 133.224 263.456 133.992C262.784 134.664 261.92 135 260.864 135H241.856ZM327.967 136.44C316.063 136.44 306.895 133.608 300.463 127.944C294.031 122.28 290.527 114.312 289.951 104.04C289.855 102.792 289.807 100.632 289.807 97.56C289.807 94.488 289.855 92.328 289.951 91.08C290.527 80.904 294.127 72.984 300.751 67.32C307.375 61.56 316.447 58.68 327.967 58.68C339.583 58.68 348.703 61.56 355.327 67.32C361.951 72.984 365.551 80.904 366.127 91.08C366.223 92.328 366.271 94.488 366.271 97.56C366.271 100.632 366.223 102.792 366.127 104.04C365.551 114.312 362.047 122.28 355.615 127.944C349.183 133.608 339.967 136.44 327.967 136.44ZM327.967 118.872C332.191 118.872 335.311 117.624 337.327 115.128C339.343 112.536 340.495 108.6 340.783 103.32C340.879 102.36 340.927 100.44 340.927 97.56C340.927 94.68 340.879 92.76 340.783 91.8C340.495 86.616 339.295 82.728 337.183 80.136C335.167 77.544 332.095 76.248 327.967 76.248C319.999 76.248 315.775 81.432 315.295 91.8L315.151 97.56L315.295 103.32C315.487 108.6 316.591 112.536 318.607 115.128C320.719 117.624 323.839 118.872 327.967 118.872ZM383.886 102.168C382.83 102.168 381.966 101.832 381.294 101.16C380.622 100.488 380.286 99.624 380.286 98.568V85.032C380.286 83.976 380.622 83.112 381.294 82.44C381.966 81.768 382.83 81.432 383.886 81.432H428.958C430.014 81.432 430.878 81.768 431.55 82.44C432.318 83.112 432.702 83.976 432.702 85.032V98.568C432.702 99.624 432.318 100.488 431.55 101.16C430.878 101.832 430.014 102.168 428.958 102.168H383.886ZM453.961 135C453.001 135 452.137 134.664 451.369 133.992C450.697 133.224 450.361 132.36 450.361 131.4V37.8C450.361 36.744 450.697 35.88 451.369 35.208C452.137 34.536 453.001 34.2 453.961 34.2H491.401C505.513 34.2 516.457 37.56 524.233 44.28C532.009 51 536.089 60.744 536.473 73.512C536.569 76.296 536.617 79.992 536.617 84.6C536.617 89.208 536.569 92.856 536.473 95.544C535.993 108.888 532.009 118.824 524.521 125.352C517.129 131.784 506.329 135 492.121 135H453.961ZM491.401 114.264C497.737 114.264 502.393 112.776 505.369 109.8C508.345 106.728 509.929 101.88 510.121 95.256C510.313 92.472 510.409 88.872 510.409 84.456C510.409 80.04 510.313 76.488 510.121 73.8C509.929 67.368 508.201 62.616 504.937 59.544C501.769 56.472 497.017 54.936 490.681 54.936H476.281V114.264H491.401ZM587.279 136.44C575.375 136.44 566.207 133.608 559.775 127.944C553.343 122.28 549.839 114.312 549.263 104.04C549.167 102.792 549.119 100.632 549.119 97.56C549.119 94.488 549.167 92.328 549.263 91.08C549.839 80.904 553.439 72.984 560.063 67.32C566.687 61.56 575.759 58.68 587.279 58.68C598.895 58.68 608.015 61.56 614.639 67.32C621.263 72.984 624.863 80.904 625.439 91.08C625.535 92.328 625.583 94.488 625.583 97.56C625.583 100.632 625.535 102.792 625.439 104.04C624.863 114.312 621.359 122.28 614.927 127.944C608.495 133.608 599.279 136.44 587.279 136.44ZM587.279 118.872C591.503 118.872 594.623 117.624 596.639 115.128C598.655 112.536 599.807 108.6 600.095 103.32C600.191 102.36 600.239 100.44 600.239 97.56C600.239 94.68 600.191 92.76 600.095 91.8C599.807 86.616 598.607 82.728 596.495 80.136C594.479 77.544 591.407 76.248 587.279 76.248C579.311 76.248 575.087 81.432 574.607 91.8L574.463 97.56L574.607 103.32C574.799 108.6 575.903 112.536 577.919 115.128C580.031 117.624 583.151 118.872 587.279 118.872Z" fill="url(#paint0_linear)"/>
<defs>
<linearGradient id="paint0_linear" x1="454" y1="0" x2="454" y2="176" gradientUnits="userSpaceOnUse">
<stop stop-color="#FF04F5"/>
<stop offset="1" stop-color="#FF21F6" stop-opacity="0"/>
</linearGradient>
<clipPath id="clip0">
<rect width="870" height="520.139" fill="white" transform="translate(0 157)"/>
</clipPath>
</defs>
</svg>
