<svg width="540" height="501" viewBox="0 0 540 501" fill="none" xmlns="http://www.w3.org/2000/svg">
<path d="M315.535 118.745H312.699V43.5315C312.699 37.8147 311.534 32.1539 309.271 26.8722C307.007 21.5906 303.69 16.7916 299.508 12.7493C295.326 8.70704 290.361 5.50057 284.897 3.31303C279.433 1.12549 273.577 -0.000276949 267.662 5.11052e-08H102.81C96.8958 -9.2282e-05 91.0396 1.12584 85.5756 3.3135C80.1117 5.50117 75.1471 8.70772 70.9652 12.7501C66.7833 16.7924 63.466 21.5914 61.2029 26.873C58.9397 32.1547 57.7749 37.8155 57.775 43.5322V456.16C57.775 467.705 62.5196 478.778 70.9652 486.942C79.4107 495.105 90.8653 499.692 102.809 499.692H267.662C279.606 499.692 291.061 495.105 299.506 486.942C307.952 478.778 312.697 467.705 312.697 456.16V172.284H315.533L315.535 118.745Z" fill="#3F3D56"/>
<path d="M303.515 40.6152V459.074C303.514 467.827 299.916 476.222 293.514 482.412C287.111 488.603 278.427 492.082 269.372 492.085H101.135C92.0756 492.086 83.3869 488.609 76.9797 482.419C70.5724 476.228 66.9715 467.831 66.9688 459.074V40.6152C66.9715 31.8586 70.5723 23.4616 76.9792 17.2711C83.3861 11.0806 92.0745 7.6035 101.133 7.60461H121.541C120.539 9.98666 120.158 12.5702 120.431 15.1281C120.703 17.686 121.622 20.1399 123.106 22.2743C124.59 24.4086 126.593 26.158 128.94 27.3687C131.287 28.5793 133.905 29.2142 136.566 29.2174H232.48C235.141 29.2142 237.759 28.5793 240.106 27.3687C242.453 26.158 244.456 24.4086 245.94 22.2743C247.424 20.1399 248.342 17.686 248.615 15.1281C248.888 12.5702 248.507 9.98666 247.505 7.60461H269.365C278.421 7.60611 287.105 11.0836 293.509 17.2726C299.913 23.4616 303.512 31.8554 303.515 40.6088V40.6152Z" fill="white"/>
<path d="M187.046 208.025C167.891 208.031 149.518 200.683 135.968 187.596C122.418 174.51 114.801 156.756 114.792 138.241V138.179C114.792 138.032 114.792 137.878 114.801 137.732C115.019 99.4844 147.432 68.3377 187.046 68.3377C196.534 68.3372 205.93 70.1433 214.696 73.6527C223.462 77.1621 231.428 82.3063 238.137 88.7914C244.847 95.2765 250.17 102.976 253.801 111.449C257.433 119.922 259.302 129.004 259.303 138.176C259.303 147.348 257.435 156.43 253.804 164.904C250.174 173.378 244.852 181.078 238.143 187.563C231.434 194.049 223.469 199.194 214.703 202.705C205.937 206.215 196.542 208.022 187.054 208.022H187.046V208.025ZM187.046 69.8072C168.371 69.8475 150.468 77.0095 137.226 89.7369C123.983 102.464 116.472 119.729 116.323 137.779C116.315 137.935 116.315 138.061 116.315 138.179C116.313 151.704 120.46 164.926 128.232 176.172C136.005 187.418 147.052 196.184 159.978 201.361C172.904 206.538 187.128 207.893 200.851 205.256C214.574 202.618 227.18 196.106 237.074 186.543C246.968 176.981 253.706 164.796 256.437 151.532C259.167 138.267 257.767 124.518 252.413 112.022C247.059 99.5267 237.992 88.8465 226.359 81.3323C214.725 73.8181 201.048 69.8073 187.057 69.8072H187.046Z" fill="#E6E6E6"/>
<path d="M155.446 137.585C164.011 137.585 170.955 130.873 170.955 122.594C170.955 114.315 164.011 107.603 155.446 107.603C146.881 107.603 139.937 114.315 139.937 122.594C139.937 130.873 146.881 137.585 155.446 137.585Z" fill="#3F3D56"/>
<path d="M204.079 168.789H127.997C127.902 168.79 127.807 168.783 127.713 168.767L163.697 108.523C163.916 108.147 164.235 107.835 164.62 107.618C165.005 107.401 165.443 107.286 165.889 107.286C166.335 107.286 166.773 107.401 167.158 107.618C167.544 107.835 167.862 108.147 168.082 108.523L192.23 148.95L193.386 150.884L204.079 168.789Z" fill="#CE1EC7"/>
<path d="M246.438 168.79H180.635L193.386 150.886L194.303 149.596L210.919 126.265C211.213 125.908 211.581 125.615 212 125.404C212.418 125.194 212.878 125.071 213.349 125.044C213.82 125.017 214.292 125.086 214.734 125.247C215.175 125.407 215.577 125.656 215.913 125.977C215.999 126.068 216.079 126.164 216.152 126.265L246.438 168.79Z" fill="#CE1EC7"/>
<path d="M261.76 281.456H112.262C111.528 281.455 110.824 281.173 110.305 280.671C109.786 280.17 109.494 279.49 109.494 278.78V242.934C109.495 242.225 109.787 241.545 110.306 241.043C110.824 240.541 111.528 240.259 112.262 240.258H261.76C262.494 240.259 263.198 240.541 263.717 241.043C264.235 241.545 264.527 242.225 264.528 242.934V278.781C264.527 279.49 264.235 280.17 263.717 280.672C263.198 281.174 262.494 281.456 261.76 281.457V281.456ZM112.262 241.328C111.821 241.329 111.399 241.498 111.088 241.799C110.776 242.1 110.601 242.508 110.601 242.934V278.781C110.601 279.207 110.776 279.615 111.088 279.916C111.399 280.217 111.821 280.386 112.262 280.387H261.76C262.201 280.386 262.623 280.217 262.934 279.916C263.246 279.615 263.421 279.207 263.421 278.781V242.934C263.421 242.508 263.246 242.1 262.934 241.799C262.623 241.498 262.201 241.329 261.76 241.328H112.262Z" fill="#E6E6E6"/>
<path d="M131.641 272.097C138.063 272.097 143.269 267.065 143.269 260.857C143.269 254.65 138.063 249.618 131.641 249.618C125.22 249.618 120.014 254.65 120.014 260.857C120.014 267.065 125.22 272.097 131.641 272.097Z" fill="#CE1EC7"/>
<path d="M158.496 253.364C157.982 253.364 157.489 253.561 157.126 253.912C156.763 254.264 156.558 254.74 156.558 255.237C156.558 255.734 156.763 256.21 157.126 256.562C157.489 256.913 157.982 257.111 158.496 257.111H249.856C250.114 257.12 250.371 257.08 250.613 256.992C250.854 256.904 251.075 256.77 251.263 256.599C251.45 256.427 251.6 256.221 251.704 255.993C251.808 255.764 251.864 255.518 251.868 255.269C251.872 255.019 251.825 254.771 251.729 254.54C251.633 254.308 251.489 254.098 251.308 253.92C251.126 253.743 250.91 253.602 250.672 253.507C250.433 253.412 250.177 253.363 249.919 253.364H158.496V253.364Z" fill="#E6E6E6"/>
<path d="M158.496 264.603C157.982 264.603 157.489 264.801 157.126 265.152C156.763 265.503 156.558 265.98 156.558 266.477C156.558 266.973 156.763 267.45 157.126 267.801C157.489 268.153 157.982 268.35 158.496 268.35H249.856C250.114 268.36 250.371 268.319 250.613 268.231C250.854 268.143 251.075 268.01 251.263 267.838C251.45 267.667 251.6 267.461 251.704 267.232C251.808 267.004 251.864 266.758 251.868 266.508C251.872 266.259 251.825 266.011 251.729 265.779C251.633 265.548 251.489 265.337 251.308 265.16C251.126 264.982 250.91 264.842 250.672 264.746C250.433 264.651 250.177 264.603 249.919 264.604H158.496V264.603Z" fill="#E6E6E6"/>
<path d="M261.76 341.401H112.262C111.528 341.4 110.824 341.118 110.305 340.617C109.786 340.115 109.494 339.435 109.494 338.725V302.879C109.495 302.17 109.787 301.49 110.306 300.988C110.824 300.486 111.528 300.204 112.262 300.203H261.76C262.494 300.204 263.198 300.486 263.717 300.988C264.235 301.49 264.527 302.17 264.528 302.879V338.726C264.527 339.435 264.235 340.115 263.716 340.617C263.197 341.118 262.494 341.4 261.76 341.401V341.401ZM112.262 301.273C111.821 301.274 111.399 301.443 111.088 301.744C110.776 302.045 110.601 302.453 110.601 302.879V338.726C110.601 339.152 110.776 339.56 111.088 339.861C111.399 340.162 111.821 340.331 112.262 340.332H261.76C262.201 340.331 262.623 340.162 262.934 339.861C263.246 339.56 263.421 339.152 263.421 338.726V302.879C263.421 302.453 263.246 302.045 262.934 301.744C262.623 301.443 262.201 301.274 261.76 301.273H112.262Z" fill="#E6E6E6"/>
<path d="M131.641 332.041C138.063 332.041 143.269 327.009 143.269 320.801C143.269 314.594 138.063 309.562 131.641 309.562C125.22 309.562 120.014 314.594 120.014 320.801C120.014 327.009 125.22 332.041 131.641 332.041Z" fill="#CE1EC7"/>
<path d="M158.496 313.307C157.982 313.307 157.489 313.504 157.126 313.855C156.763 314.207 156.558 314.683 156.558 315.18C156.558 315.677 156.763 316.153 157.126 316.505C157.489 316.856 157.982 317.053 158.496 317.053H249.856C250.362 317.051 250.848 316.856 251.208 316.512C251.568 316.167 251.775 315.7 251.783 315.21C251.791 314.72 251.601 314.247 251.252 313.891C250.904 313.536 250.425 313.326 249.919 313.307H158.496V313.307Z" fill="#E6E6E6"/>
<path d="M158.496 324.548C157.982 324.548 157.489 324.746 157.126 325.097C156.763 325.448 156.558 325.925 156.558 326.422C156.558 326.918 156.763 327.395 157.126 327.746C157.489 328.098 157.982 328.295 158.496 328.295H249.856C250.362 328.292 250.848 328.098 251.208 327.753C251.568 327.409 251.775 326.942 251.783 326.452C251.791 325.962 251.601 325.489 251.252 325.133C250.904 324.777 250.425 324.568 249.919 324.549H158.496V324.548Z" fill="#E6E6E6"/>
<path d="M261.76 401.345H112.262C111.528 401.345 110.824 401.062 110.305 400.561C109.786 400.059 109.494 399.379 109.494 398.669V362.823C109.495 362.114 109.787 361.434 110.306 360.932C110.824 360.431 111.528 360.148 112.262 360.147H261.76C262.494 360.148 263.198 360.431 263.717 360.932C264.235 361.434 264.527 362.114 264.528 362.823V398.67C264.527 399.38 264.235 400.06 263.717 400.561C263.198 401.063 262.494 401.345 261.76 401.346V401.345ZM112.262 361.217C111.821 361.218 111.399 361.387 111.088 361.688C110.776 361.989 110.601 362.398 110.601 362.823V398.67C110.601 399.096 110.776 399.504 111.088 399.805C111.399 400.106 111.821 400.276 112.262 400.276H261.76C262.201 400.276 262.623 400.106 262.934 399.805C263.246 399.504 263.421 399.096 263.421 398.67V362.823C263.421 362.398 263.246 361.989 262.934 361.688C262.623 361.387 262.201 361.218 261.76 361.217H112.262Z" fill="#E6E6E6"/>
<path d="M131.641 391.986C138.063 391.986 143.269 386.954 143.269 380.746C143.269 374.539 138.063 369.507 131.641 369.507C125.22 369.507 120.014 374.539 120.014 380.746C120.014 386.954 125.22 391.986 131.641 391.986Z" fill="#CE1EC7"/>
<path d="M158.496 373.253C157.982 373.253 157.489 373.45 157.126 373.802C156.763 374.153 156.558 374.629 156.558 375.126C156.558 375.623 156.763 376.1 157.126 376.451C157.489 376.802 157.982 377 158.496 377H249.856C250.114 377.009 250.371 376.969 250.613 376.881C250.854 376.793 251.075 376.659 251.263 376.488C251.45 376.316 251.6 376.11 251.704 375.882C251.808 375.654 251.864 375.407 251.868 375.158C251.872 374.908 251.825 374.661 251.729 374.429C251.633 374.197 251.489 373.987 251.308 373.809C251.126 373.632 250.91 373.492 250.672 373.396C250.433 373.301 250.177 373.252 249.919 373.254H158.496V373.253Z" fill="#E6E6E6"/>
<path d="M158.496 384.492C157.982 384.492 157.489 384.69 157.126 385.041C156.763 385.392 156.558 385.869 156.558 386.366C156.558 386.863 156.763 387.339 157.126 387.69C157.489 388.042 157.982 388.239 158.496 388.239H249.856C250.114 388.249 250.371 388.208 250.613 388.12C250.854 388.033 251.075 387.899 251.263 387.727C251.45 387.556 251.6 387.35 251.704 387.121C251.808 386.893 251.864 386.647 251.868 386.397C251.872 386.148 251.825 385.9 251.729 385.669C251.633 385.437 251.489 385.226 251.308 385.049C251.126 384.872 250.91 384.731 250.672 384.636C250.433 384.54 250.177 384.492 249.919 384.493H158.496V384.492Z" fill="#E6E6E6"/>
<path d="M382.051 491.599H372.993L368.684 457.828H382.052L382.051 491.599Z" fill="#FEB8B8"/>
<path d="M384.361 500.086H355.154V499.729C355.155 496.815 356.352 494.02 358.484 491.959C360.616 489.898 363.507 488.741 366.522 488.74H384.361L384.361 500.086Z" fill="#2F2E41"/>
<path d="M494.575 485.866L485.756 487.873L473.552 455.952L486.564 452.99L494.575 485.866Z" fill="#FEB8B8"/>
<path d="M498.836 493.615L470.408 500.084L470.323 499.736C469.981 498.332 469.928 496.875 470.167 495.451C470.407 494.026 470.935 492.661 471.72 491.434C472.506 490.206 473.534 489.14 474.746 488.297C475.957 487.454 477.329 486.849 478.782 486.518V486.518L496.146 482.566L498.836 493.615Z" fill="#2F2E41"/>
<path d="M380.2 349.157C380.218 347.399 380.757 305.863 392.535 290.159L392.708 289.927L433.754 295.401L432.836 304.119C434.641 305.816 448.842 320.161 452.943 354.128L496.511 467.231L476.258 469.011L416.301 345.543L384.574 479.75H364.499L380.2 349.157Z" fill="#2F2E41"/>
<path d="M387.727 291.692L391.739 271.33C390.954 270.353 387.474 265.66 388.248 260.158C388.754 256.569 390.97 253.421 394.837 250.801L405.238 227.345L405.379 227.265C406.079 226.866 422.637 217.611 431.665 226.343C431.89 226.512 454.116 243.569 445.193 266.572L434.176 298.528L387.727 291.692Z" fill="#CE1EC7"/>
<path d="M373.767 319.238C374.849 319.119 375.891 318.771 376.819 318.221C377.747 317.67 378.538 316.929 379.138 316.051C379.738 315.172 380.131 314.177 380.29 313.136C380.449 312.095 380.37 311.032 380.058 310.024L401.535 295.067L388.678 290.34L370.255 305.268C368.542 305.89 367.123 307.098 366.267 308.661C365.412 310.225 365.178 312.038 365.61 313.757C366.042 315.477 367.111 316.983 368.614 317.993C370.116 319.003 371.95 319.446 373.767 319.239V319.238Z" fill="#FEB8B8"/>
<path d="M377.715 295.042L410.502 270.072L400.756 237.879C400.296 236.355 400.166 234.756 400.374 233.181C400.582 231.606 401.123 230.089 401.964 228.725C402.742 227.44 403.79 226.325 405.039 225.454C406.289 224.582 407.713 223.972 409.221 223.663C414.834 222.515 419.929 225.553 424.362 232.694L424.396 232.759C425.129 234.492 442.21 275.307 429.168 284.036C416.41 292.573 386.825 305.002 386.528 305.128L386.181 305.273L377.715 295.042Z" fill="#CE1EC7"/>
<path d="M421.292 217.854C432.261 217.854 441.154 209.258 441.154 198.654C441.154 188.051 432.261 179.455 421.292 179.455C410.322 179.455 401.429 188.051 401.429 198.654C401.429 209.258 410.322 217.854 421.292 217.854Z" fill="#FEB8B8"/>
<path d="M452.429 191.799C462.134 191.799 470.001 184.195 470.001 174.814C470.001 165.434 462.134 157.829 452.429 157.829C442.725 157.829 434.858 165.434 434.858 174.814C434.858 184.195 442.725 191.799 452.429 191.799Z" fill="#2F2E41"/>
<path d="M467.585 188.879C465.311 190.467 462.677 191.506 459.902 191.908C457.128 192.31 454.294 192.064 451.638 191.191C448.982 190.318 446.581 188.843 444.635 186.889C442.69 184.935 441.256 182.56 440.455 179.961C440.758 182.291 441.557 184.535 442.802 186.552C444.047 188.569 445.711 190.314 447.69 191.677C449.668 193.041 451.917 193.993 454.295 194.473C456.673 194.954 459.129 194.952 461.506 194.469C463.884 193.986 466.132 193.032 468.109 191.666C470.086 190.301 471.748 188.554 472.991 186.536C474.234 184.518 475.03 182.273 475.33 179.942C475.63 177.611 475.426 175.246 474.732 172.995C475.125 176.019 474.669 179.09 473.412 181.885C472.154 184.679 470.142 187.095 467.585 188.879V188.879Z" fill="#2F2E41"/>
<path d="M398.241 188.896C401.308 183.588 402.482 181.373 406.437 178.139C409.935 175.284 414.237 174.446 417.708 177.151C421.928 175.369 426.639 174.985 431.108 176.058C435.578 177.131 439.556 179.6 442.424 183.083C445.292 186.566 446.89 190.867 446.97 195.317C447.05 199.768 445.607 204.12 442.865 207.697C440.123 211.273 436.236 213.874 431.807 215.096C427.379 216.318 422.657 216.091 418.376 214.452C414.094 212.813 410.492 209.853 408.129 206.032C405.767 202.211 404.776 197.743 405.311 193.322C402.294 192.914 401.257 189.308 398.241 188.896Z" fill="#2F2E41"/>
<path d="M538.59 501H1.4096C0.630608 501 0 500.671 0 500.265C0 499.859 0.631335 499.53 1.4096 499.53H538.59C539.369 499.53 540 499.859 540 500.265C540 500.671 539.369 501 538.59 501Z" fill="#E6E6E6"/>
</svg>
