<?xml version="1.0" encoding="iso-8859-1"?>
<!-- Generator: Adobe Illustrator 19.0.0, SVG Export Plug-In . SVG Version: 6.00 Build 0)  -->
<svg version="1.1" id="Capa_1" xmlns="http://www.w3.org/2000/svg" xmlns:xlink="http://www.w3.org/1999/xlink" x="0px" y="0px"
	 viewBox="0 0 496 496" style="enable-background:new 0 0 496 496;" xml:space="preserve">
<path style="fill:#FFA64D;" d="M320.536,230.352l39.176-22.856L339.888,172.8c-6.52-11.416-21.16-15.24-32.432-8.472
	c-7.264,4.36-11.24,12.048-11.296,19.976L296,184h-80h-20.024h-6.392C168.832,184,152,200.832,152,221.592
	c0,6.016,1.52,11.896,4.272,17.216L152,240l-40,24l32,56l32,64l112-64h80L320.536,230.352z"/>
<g>
	<path style="fill:#333333;" d="M479.152,209.208C489.864,195.472,496,178.304,496,160c0-22.32-9.208-42.512-24-57.032V72
		c0-39.696-32.304-72-72-72H96C56.304,0,24,32.304,24,72v136c-13.232,0-24,10.768-24,24v128v64c0,13.232,10.768,24,24,24h8v48h64
		v-48h304v48h64v-48h8c13.232,0,24-10.768,24-24v-48c0-2.72-0.616-5.352-1.512-7.888c0.928-2.544,1.512-5.256,1.512-8.112V232
		C496,221.272,488.88,212.272,479.152,209.208z M480,360c0,4.408-3.592,8-8,8h-32c-4.408,0-8-3.592-8-8v-75.384l20.192-31.736
		c3.904-6.136,5.032-13.672,3.088-20.68c-0.2-0.728-0.56-1.384-0.824-2.088c3.344-1.832,6.528-3.872,9.536-6.12V224h8
		c4.408,0,8,3.592,8,8v128H480z M416,352H248.12l42-24h94.432c12.424,0,23.824-6.256,30.488-16.736l0.96-1.504V352z M165.6,384.88
		c4.096,6.824,1.872,15.704-4.952,19.8c-3.488,2.088-7.544,2.624-11.456,1.48c-3.904-1.136-7.056-3.768-8.872-7.4l-19.952-39.904
		c0.144,0,0.288,0.024,0.424,0.024c5.624,0,11.152-1.52,16.112-4.496c3.416-2.048,6.264-4.68,8.584-7.64l7.344,12.856L165.6,384.88z
		 M80,318.872l13.232,23.808c1.112,2.008,2.448,3.832,3.92,5.512L99.056,352H80V318.872z M152.784,248.856l16.352,27.256
		l13.72-8.232l-18.648-31.072c-2.752-4.592-4.208-9.856-4.208-15.216c0-16.32,13.272-29.592,29.592-29.592h99.512
		c0.664,2.632,1.544,5.232,2.928,7.72l60.944,109.688c0.504,0.904,1.104,1.736,1.672,2.592h-62.12l-21.32-35.536
		c2.112-12.128-0.08-25.056-7.232-36.176l-19.592-28.792l-13.224,9l19.48,28.616c10.136,15.768,5.688,37.048-9.896,47.448
		c-6.904,4.6-15.208,6.568-23.456,5.536l-51.24-6.408l-19.344,12.896l-6.416-11.224L123.6,266.368L152.784,248.856z
		 M438.696,244.288l-37.152,58.384c-3.712,5.84-10.064,9.328-16.992,9.328c-7.312,0-14.048-3.968-17.6-10.36l-36.864-66.36
		l27.024-16.216l26.528,46.424l-6.424,10.272l13.568,8.48l31.456-50.336c2.672-4.272,8.088-5.792,12.6-3.536
		c2.496,1.248,4.28,3.416,5.024,6.104C440.608,239.16,440.192,241.936,438.696,244.288z M393.264,250.088l-9.736-17.04
		c5.384,2.408,11.064,4.256,17,5.424L393.264,250.088z M349.168,205.168l-26.856,16.112l-16.296-29.336
		c-4.072-7.328-1.632-16.448,5.56-20.76c2.44-1.464,5.16-2.208,7.92-2.208c1.312,0,2.632,0.168,3.936,0.512
		c4.056,1.056,7.432,3.648,9.512,7.288L349.168,205.168z M126.336,305.224l8,14.856c3.92,7.288,1.44,16.328-5.664,20.584
		c-3.624,2.176-7.872,2.776-11.952,1.672c-4.08-1.096-7.456-3.728-9.512-7.424L86.504,297.64c-2.104-3.792-0.84-8.512,2.88-10.744
		l19.72-11.832L126.336,305.224z M178.976,373.088l-26.928-47.12c-0.024-0.568,0.04-1.136-0.024-1.704l17.936-11.952l45.336,5.664
		c12.048,1.52,24.224-1.368,34.32-8.096c5.872-3.92,10.648-8.904,14.264-14.528l13.056,21.76L178.976,373.088z M480,160
		c0,24.688-14.04,46.648-35.968,57.36c-0.688-0.432-1.312-0.936-2.04-1.304c-11.264-5.632-24.592-2.264-32,7.64
		C377.512,220.656,352,193.264,352,160c0-35.288,28.712-64,64-64S480,124.712,480,160z M40,72c0-30.88,25.12-56,56-56h304
		c30.88,0,56,25.12,56,56v18.824C444.216,83.984,430.576,80,416,80c-43.392,0-78.752,34.752-79.896,77.872
		c-2.664-1.656-5.504-3.048-8.632-3.864c-8.24-2.16-16.816-0.936-24.144,3.464C296.12,161.8,291.28,168.52,289.2,176h-99.608
		C164.456,176,144,196.456,144,221.592c0,4.344,0.656,8.632,1.864,12.76l-44.696,26.816l0,0l-20.016,12.008
		c-0.416,0.256-0.752,0.584-1.152,0.864V232c0-13.232-10.768-24-24-24H40V72z M16,232c0-4.408,3.592-8,8-8h32c4.408,0,8,3.592,8,8
		v128c0,4.408-3.592,8-8,8H24c-4.408,0-8-3.592-8-8V232z M80,480H48v-32h32V480z M448,480h-32v-32h32V480z M472,432h-8h-64H96H32h-8
		c-4.408,0-8-3.592-8-8v-41.472c2.512,0.896,5.184,1.472,8,1.472h32c10.416,0,19.216-6.712,22.528-16h28.528l18.96,37.912
		c3.784,7.56,10.6,13.248,18.712,15.608c2.776,0.808,5.632,1.208,8.488,1.208c5.472,0,10.912-1.472,15.68-4.336
		c6.968-4.176,11.888-10.824,13.864-18.712c0.896-3.576,1.048-7.208,0.672-10.72L220.12,368h197.352
		c3.312,9.288,12.112,16,22.528,16h32c2.816,0,5.488-0.576,8-1.472V424C480,428.408,476.408,432,472,432z"/>
	<polygon style="fill:#333333;" points="288,144 288,128 268.28,128 289.616,96 240,96 240,112 259.72,112 238.384,144 	"/>
	<polygon style="fill:#333333;" points="232,80 232,64 212.28,64 233.616,32 184,32 184,48 203.72,48 182.384,80 	"/>
</g>
<g>
</g>
<g>
</g>
<g>
</g>
<g>
</g>
<g>
</g>
<g>
</g>
<g>
</g>
<g>
</g>
<g>
</g>
<g>
</g>
<g>
</g>
<g>
</g>
<g>
</g>
<g>
</g>
<g>
</g>
</svg>
