<svg width="417" height="103" viewBox="0 0 417 103" fill="none" xmlns="http://www.w3.org/2000/svg">
<path d="M32.856 101C31.896 101 31.032 100.664 30.264 99.992C29.592 99.224 29.256 98.36 29.256 97.4V22.808H3.624C2.664 22.808 1.8 22.472 1.032 21.8C0.36 21.032 0.0240002 20.168 0.0240002 19.208V3.8C0.0240002 2.74399 0.36 1.87999 1.032 1.208C1.8 0.535995 2.664 0.199993 3.624 0.199993H81.096C82.152 0.199993 83.016 0.535995 83.688 1.208C84.36 1.87999 84.696 2.74399 84.696 3.8V19.208C84.696 20.264 84.36 21.128 83.688 21.8C83.016 22.472 82.152 22.808 81.096 22.808H55.464V97.4C55.464 98.36 55.128 99.224 54.456 99.992C53.784 100.664 52.92 101 51.864 101H32.856ZM118.967 102.44C107.063 102.44 97.8949 99.608 91.4629 93.944C85.0309 88.28 81.5269 80.312 80.9509 70.04C80.8549 68.792 80.8069 66.632 80.8069 63.56C80.8069 60.488 80.8549 58.328 80.9509 57.08C81.5269 46.904 85.1269 38.984 91.7509 33.32C98.3749 27.56 107.447 24.68 118.967 24.68C130.583 24.68 139.703 27.56 146.327 33.32C152.951 38.984 156.551 46.904 157.127 57.08C157.223 58.328 157.271 60.488 157.271 63.56C157.271 66.632 157.223 68.792 157.127 70.04C156.551 80.312 153.047 88.28 146.615 93.944C140.183 99.608 130.967 102.44 118.967 102.44ZM118.967 84.872C123.191 84.872 126.311 83.624 128.327 81.128C130.343 78.536 131.495 74.6 131.783 69.32C131.879 68.36 131.927 66.44 131.927 63.56C131.927 60.68 131.879 58.76 131.783 57.8C131.495 52.616 130.295 48.728 128.183 46.136C126.167 43.544 123.095 42.248 118.967 42.248C110.999 42.248 106.775 47.432 106.295 57.8L106.151 63.56L106.295 69.32C106.487 74.6 107.591 78.536 109.607 81.128C111.719 83.624 114.839 84.872 118.967 84.872ZM174.886 68.168C173.83 68.168 172.966 67.832 172.294 67.16C171.622 66.488 171.286 65.624 171.286 64.568V51.032C171.286 49.976 171.622 49.112 172.294 48.44C172.966 47.768 173.83 47.432 174.886 47.432H219.958C221.014 47.432 221.878 47.768 222.55 48.44C223.318 49.112 223.702 49.976 223.702 51.032V64.568C223.702 65.624 223.318 66.488 222.55 67.16C221.878 67.832 221.014 68.168 219.958 68.168H174.886ZM244.961 101C244.001 101 243.137 100.664 242.369 99.992C241.697 99.224 241.361 98.36 241.361 97.4V3.8C241.361 2.74399 241.697 1.87999 242.369 1.208C243.137 0.535995 244.001 0.199993 244.961 0.199993H282.401C296.513 0.199993 307.457 3.55999 315.233 10.28C323.009 17 327.089 26.744 327.473 39.512C327.569 42.296 327.617 45.992 327.617 50.6C327.617 55.208 327.569 58.856 327.473 61.544C326.993 74.888 323.009 84.824 315.521 91.352C308.129 97.784 297.329 101 283.121 101H244.961ZM282.401 80.264C288.737 80.264 293.393 78.776 296.369 75.8C299.345 72.728 300.929 67.88 301.121 61.256C301.313 58.472 301.409 54.872 301.409 50.456C301.409 46.04 301.313 42.488 301.121 39.8C300.929 33.368 299.201 28.616 295.937 25.544C292.769 22.472 288.017 20.936 281.681 20.936H267.281V80.264H282.401ZM378.279 102.44C366.375 102.44 357.207 99.608 350.775 93.944C344.343 88.28 340.839 80.312 340.263 70.04C340.167 68.792 340.119 66.632 340.119 63.56C340.119 60.488 340.167 58.328 340.263 57.08C340.839 46.904 344.439 38.984 351.063 33.32C357.687 27.56 366.759 24.68 378.279 24.68C389.895 24.68 399.015 27.56 405.639 33.32C412.263 38.984 415.863 46.904 416.439 57.08C416.535 58.328 416.583 60.488 416.583 63.56C416.583 66.632 416.535 68.792 416.439 70.04C415.863 80.312 412.359 88.28 405.927 93.944C399.495 99.608 390.279 102.44 378.279 102.44ZM378.279 84.872C382.503 84.872 385.623 83.624 387.639 81.128C389.655 78.536 390.807 74.6 391.095 69.32C391.191 68.36 391.239 66.44 391.239 63.56C391.239 60.68 391.191 58.76 391.095 57.8C390.807 52.616 389.607 48.728 387.495 46.136C385.479 43.544 382.407 42.248 378.279 42.248C370.311 42.248 366.087 47.432 365.607 57.8L365.463 63.56L365.607 69.32C365.799 74.6 366.903 78.536 368.919 81.128C371.031 83.624 374.151 84.872 378.279 84.872Z" fill="url(#paint0_linear)"/>
<defs>
<linearGradient id="paint0_linear" x1="245" y1="-34" x2="245" y2="142" gradientUnits="userSpaceOnUse">
<stop stop-color="#FF04F5"/>
<stop offset="1" stop-color="#FF21F6" stop-opacity="0"/>
</linearGradient>
</defs>
</svg>
