<svg width="291" height="276" viewBox="0 0 291 276" fill="none" xmlns="http://www.w3.org/2000/svg">
<path d="M240.984 34.5H190.969V25.875C190.969 11.6076 178.73 0 163.688 0H127.312C112.27 0 100.031 11.6076 100.031 25.875V34.5H50.0156C37.4799 34.5 27.2812 44.1729 27.2812 56.0625V86.25C27.2812 91.0132 31.353 94.875 36.375 94.875H41.3447L49.2012 251.356C49.8951 265.175 61.8648 276 76.4512 276H214.549C229.136 276 241.105 265.175 241.799 251.356L249.655 94.875H254.625C259.647 94.875 263.719 91.0132 263.719 86.25V56.0625C263.719 44.1729 253.52 34.5 240.984 34.5ZM118.219 25.875C118.219 21.1194 122.298 17.25 127.312 17.25H163.688C168.702 17.25 172.781 21.1194 172.781 25.875V34.5H118.219V25.875ZM45.4688 56.0625C45.4688 53.6847 47.5086 51.75 50.0156 51.75H240.984C243.491 51.75 245.531 53.6847 245.531 56.0625V77.625C242.729 77.625 57.082 77.625 45.4688 77.625V56.0625ZM223.632 250.535C223.4 255.142 219.411 258.75 214.549 258.75H76.4512C71.5888 258.75 67.599 255.142 67.3682 250.535L59.5527 94.875H231.447L223.632 250.535Z" fill="#CE1EC7"/>
<path d="M145.5 241.5C150.522 241.5 154.594 237.638 154.594 232.875V120.75C154.594 115.987 150.522 112.125 145.5 112.125C140.478 112.125 136.406 115.987 136.406 120.75V232.875C136.406 237.638 140.477 241.5 145.5 241.5Z" fill="#CE1EC7"/>
<path d="M190.969 241.5C195.991 241.5 200.062 237.638 200.062 232.875V120.75C200.062 115.987 195.991 112.125 190.969 112.125C185.947 112.125 181.875 115.987 181.875 120.75V232.875C181.875 237.638 185.946 241.5 190.969 241.5Z" fill="#CE1EC7"/>
<path d="M100.031 241.5C105.053 241.5 109.125 237.638 109.125 232.875V120.75C109.125 115.987 105.053 112.125 100.031 112.125C95.0092 112.125 90.9375 115.987 90.9375 120.75V232.875C90.9375 237.638 95.0087 241.5 100.031 241.5Z" fill="#CE1EC7"/>
</svg>
